<svg xmlns="http://www.w3.org/2000/svg" xmlns:xlink="http://www.w3.org/1999/xlink" xmlns:serif="http://www.serif.com/" version="1.1" xml:space="preserve" style="fill-rule:evenodd;clip-rule:evenodd;stroke-linecap:round;stroke-linejoin:round;" viewBox="11.62 38.82 816.25 247.27"><g><g><g id="container-id1"><g id="id1"><g><g><g id="id3"><rect x="18.863" y="60.772" width="806.24" height="225.383" style="fill:none;"/><path d="M22.414,275.429c279.33,-11.082 177.579,73.765 394.224,-146.432c227.299,-209.542 -124.305,164.189 404.878,82.503" style="fill:none;stroke:#30c7db;stroke-width:7.1px;"/></g></g><g><g id="id4"><rect x="11.618" y="38.787" width="816.291" height="235.859" style="fill:none;"/><path d="M21.384,258.949c279.33,-11.081 166.994,70.321 383.64,-149.876c227.3,-209.542 -148.065,198.887 413.082,120.753" style="fill:none;stroke:#ff8400;stroke-width:19.53px;"/></g></g><g><g id="id5"><rect x="36.762" y="112.091" width="744.94" height="189.369" style="fill:none;"/><g><path d="M115.325,223.285c-0,17.62 -13.038,26.429 -39.115,26.429c-9.513,-0 -17.824,-1.028 -24.93,-3.084l2.996,-17.355c7.34,2.644 14.652,3.964 21.934,3.964c7.048,0 11.938,-0.586 14.668,-1.761c2.731,-1.174 4.097,-3.143 4.097,-5.903c0,-4.287 -4.934,-8.368 -14.801,-12.245c-8.632,-3.406 -14.917,-6.754 -18.851,-10.043c-5.404,-4.581 -8.105,-10.19 -8.105,-16.825c0,-7.812 2.907,-14.095 8.722,-18.853c5.813,-4.757 14.27,-7.136 25.371,-7.136c10.395,-0 18.558,0.911 24.491,2.731l-2.996,17.443c-6.637,-2.585 -13.802,-3.876 -21.495,-3.876c-9.397,-0 -14.095,2.408 -14.095,7.224c-0,2.467 0.998,4.449 2.994,5.946c1.997,1.497 6.079,3.392 12.246,5.682c8.516,3.112 14.712,6.314 18.588,9.602c5.521,4.699 8.281,10.719 8.281,18.06Z" style="fill:#11484f;fill-rule:nonzero;"/><path d="M207.649,196.504c0,2.996 -0.176,6.901 -0.528,11.717l-56.735,0.969c0.824,6.636 3.671,12.157 8.546,16.562c4.874,4.405 11.277,6.606 19.205,6.606c8.809,0 18.177,-1.32 28.103,-3.964l-1.763,17.091c-8.104,2.937 -18.147,4.405 -30.129,4.405c-15.151,0 -26.766,-4.258 -34.841,-12.774c-8.075,-8.516 -12.113,-18.764 -12.113,-30.745c0,-12.51 3.833,-23.36 11.497,-32.551c7.664,-9.191 18.309,-13.787 31.934,-13.787c12.45,-0 21.701,3.376 27.75,10.131c6.05,6.753 9.074,15.534 9.074,26.34Zm-20.615,-0.793c0,-13.508 -5.755,-20.262 -17.266,-20.262c-10.982,-0 -17.502,6.99 -19.557,20.967l36.823,-0.705Z" style="fill:#11484f;fill-rule:nonzero;"/><path d="M303.144,247.335l-23.433,-0c1.291,-14.859 1.938,-29.894 1.938,-45.105c-0,-9.22 -1.366,-15.475 -4.096,-18.764c-2.731,-3.289 -6.887,-4.934 -12.466,-4.934c-6.695,0 -13.038,2.292 -19.028,6.872c0.293,22.905 0.439,43.549 0.439,61.931l-23.697,-0c1.057,-18.382 1.586,-32.831 1.586,-43.342c0,-14.037 -1.438,-27.281 -4.316,-39.732l22.552,-2.467l1.497,9.338l1.41,0c8.046,-6.929 17.296,-10.395 27.749,-10.395c9.045,0 16.285,2.13 21.716,6.387c5.433,4.258 8.149,12.113 8.149,23.566c-0,1.703 -0.073,3.978 -0.219,6.827c-0.148,2.848 -0.221,5.77 -0.221,8.766c0,7.928 0.147,21.613 0.44,41.052Z" style="fill:#11484f;fill-rule:nonzero;"/><path d="M403.397,247.247l-20.879,0.705c-0.411,-2.056 -0.616,-4.2 -0.616,-6.431l-1.322,-0c-6.46,5.579 -14.712,8.369 -24.755,8.369c-11.276,0 -20.232,-4.082 -26.869,-12.246c-6.636,-8.163 -9.954,-17.854 -9.954,-29.071c-0,-12.862 3.611,-24.065 10.835,-33.608c7.224,-9.543 17.267,-14.316 30.129,-14.316c8.339,0 14.594,1.556 18.764,4.67l1.234,-0c-0,-13.861 -0.676,-27.81 -2.026,-41.846l24.93,-0.704c-0.94,13.683 -1.409,33.359 -1.409,59.023c-0,26.018 0.646,47.836 1.938,65.455Zm-22.112,-19.998c0,-18.735 -0.441,-34.239 -1.321,-46.514c-4.053,-2.819 -8.899,-4.229 -14.537,-4.229c-7.751,0 -13.507,2.878 -17.266,8.634c-3.759,5.756 -5.638,12.803 -5.638,21.143c-0,7.4 1.82,13.787 5.461,19.161c3.643,5.373 8.693,8.06 15.153,8.06c8.634,-0 14.683,-2.085 18.148,-6.255Z" style="fill:#11484f;fill-rule:nonzero;"/><path d="M493.694,247.247l-20.789,0.705c-0.94,-2.467 -1.41,-4.698 -1.41,-6.695l-1.146,-0c-6.46,5.52 -15.182,8.28 -26.164,8.28c-7.342,0 -13.435,-2.041 -18.28,-6.122c-4.845,-4.082 -7.268,-9.499 -7.268,-16.254c0,-8.927 3.774,-16.239 11.32,-21.936c7.548,-5.697 20.776,-8.721 39.688,-9.073c0.117,-1.058 0.176,-2.056 0.176,-2.996c0,-6.342 -1.527,-10.527 -4.582,-12.553c-3.053,-2.026 -8.662,-3.039 -16.825,-3.039c-8.868,-0 -17.532,1.174 -25.989,3.523l1.938,-16.209c7.987,-2.76 19.264,-4.141 33.829,-4.141c10.631,0 18.839,2.233 24.623,6.696c5.785,4.464 8.677,12.274 8.677,23.433c-0,2.467 -0.103,6.96 -0.309,13.479c-0.205,6.518 -0.308,10.865 -0.308,13.037c0,12.157 0.94,22.113 2.819,29.865Zm-23.521,-18.324c-0.352,-7.928 -0.528,-14.771 -0.528,-20.526c-20.027,-0 -30.041,5.08 -30.041,15.24c-0,6.99 4.405,10.484 13.214,10.484c6.931,0 12.716,-1.732 17.355,-5.198Z" style="fill:#11484f;fill-rule:nonzero;"/><path d="M590.247,247.335l-23.433,-0c1.292,-14.859 1.938,-29.894 1.938,-45.105c0,-9.22 -1.365,-15.475 -4.097,-18.764c-2.731,-3.289 -6.886,-4.934 -12.465,-4.934c-6.695,0 -13.038,2.292 -19.029,6.872c0.294,22.905 0.441,43.549 0.441,61.931l-23.698,-0c1.058,-18.382 1.585,-32.831 1.585,-43.342c0,-14.037 -1.438,-27.281 -4.316,-39.732l22.552,-2.467l1.498,9.338l1.409,0c8.046,-6.929 17.297,-10.395 27.751,-10.395c9.045,0 16.283,2.13 21.715,6.387c5.433,4.258 8.149,12.113 8.149,23.566c0,1.703 -0.074,3.978 -0.22,6.827c-0.147,2.848 -0.221,5.77 -0.221,8.766c0,7.928 0.147,21.613 0.441,41.052Z" style="fill:#11484f;fill-rule:nonzero;"/><path d="M676.493,228.835l-1.499,16.827c-5.343,2.819 -12.596,4.228 -21.759,4.228c-15.153,0 -26.795,-4.228 -34.93,-12.685c-8.134,-8.457 -12.201,-18.619 -12.201,-30.482c0,-12.333 4.258,-23.095 12.774,-32.287c8.516,-9.191 20.174,-13.787 34.973,-13.787c7.225,0 13.656,0.822 19.294,2.467l-2.996,17.971c-5.402,-2.232 -11.451,-3.347 -18.147,-3.347c-7.106,0 -12.716,2.511 -16.826,7.532c-4.111,5.021 -6.167,11.203 -6.167,18.544c-0,7.987 2.438,14.742 7.312,20.262c4.875,5.52 11.776,8.28 20.703,8.28c5.227,0 11.716,-1.174 19.469,-3.523Z" style="fill:#11484f;fill-rule:nonzero;"/><path d="M766.702,196.504c0,2.996 -0.176,6.901 -0.528,11.717l-56.733,0.969c0.822,6.636 3.669,12.157 8.545,16.562c4.875,4.405 11.276,6.606 19.204,6.606c8.809,0 18.177,-1.32 28.103,-3.964l-1.763,17.091c-8.104,2.937 -18.147,4.405 -30.127,4.405c-15.153,0 -26.768,-4.258 -34.843,-12.774c-8.075,-8.516 -12.113,-18.764 -12.113,-30.745c0,-12.51 3.833,-23.36 11.497,-32.551c7.664,-9.191 18.309,-13.787 31.934,-13.787c12.452,-0 21.701,3.376 27.751,10.131c6.049,6.753 9.073,15.534 9.073,26.34Zm-20.614,-0.793c0,-13.508 -5.756,-20.262 -17.267,-20.262c-10.982,-0 -17.501,6.99 -19.557,20.967l36.824,-0.705Z" style="fill:#11484f;fill-rule:nonzero;"/></g></g></g></g></g></g></g></g></svg>